# Blender 5.0.1
# www.blender.org
o Plane.001
v -0.002296 0.000000 0.475759
v 0.229741 0.000000 -0.496947
v -0.002296 1.000000 0.475759
v 0.229742 1.000000 -0.496947
v -0.579647 0.000000 -0.042373
v 0.308824 0.000000 -0.501305
v -0.579647 1.000000 -0.042373
v 0.308824 1.000000 -0.501305
v -0.647151 0.000000 -0.152019
v 0.070298 0.000000 0.544591
v -0.647151 1.000000 -0.152019
v 0.070298 1.000000 0.544591
vn 0.9727 -0.0000 0.2320
vn 0.4589 -0.0000 0.8885
vn -0.6966 -0.0000 0.7174
vt 1.000000 0.000000
vt 0.000000 1.000000
vt 0.000000 0.000000
vt 1.000000 1.000000
s 0
f 2/1/1 3/2/1 1/3/1
f 6/1/2 7/2/2 5/3/2
f 10/1/3 11/2/3 9/3/3
f 2/1/1 4/4/1 3/2/1
f 6/1/2 8/4/2 7/2/2
f 10/1/3 12/4/3 11/2/3
