# Blender 5.0.1
# www.blender.org
o Plane.002
v -0.098861 0.100000 0.022580
v -0.098861 -0.100000 0.022580
v 0.074344 0.100000 -0.077420
v 0.074344 -0.100000 -0.077420
v -0.097747 0.100000 -0.003025
v -0.097747 -0.100000 -0.003025
v 0.075458 0.100000 0.096975
v 0.075458 -0.100000 0.096975
v 0.043962 0.100000 0.106471
v 0.043962 -0.100000 0.106471
v 0.043962 0.100000 -0.093529
v 0.043962 -0.100000 -0.093529
vn 0.5000 -0.0000 0.8660
vn -0.5000 -0.0000 0.8660
vn 1.0000 -0.0000 -0.0000
vt 1.000000 0.000000
vt 0.000000 1.000000
vt 0.000000 0.000000
vt 1.000000 1.000000
s 0
f 2/1/1 3/2/1 1/3/1
f 6/1/2 7/2/2 5/3/2
f 10/1/3 11/2/3 9/3/3
f 2/1/1 4/4/1 3/2/1
f 6/1/2 8/4/2 7/2/2
f 10/1/3 12/4/3 11/2/3
